<svg xmlns="http://www.w3.org/2000/svg" width="128" height="24" fill="none" viewBox="0 0 128 24">
    <path fill="#fff" fill-rule="evenodd" d="M.727 19.797l5.974-7.202L1.075 5.86C.695 5.394.348 4.773.348 4.09c0-1.334 1.01-2.358 2.402-2.358 1.043 0 1.643.402 2.244 1.179L9.83 9.243l4.804-6.208c.664-.838 1.297-1.303 2.371-1.303s2.214.838 2.214 2.203c0 .683-.254 1.242-.728 1.831l-5.627 6.768 5.942 7.17c.381.465.728 1.085.728 1.768 0 1.336-1.011 2.36-2.402 2.36-1.043 0-1.645-.404-2.245-1.18l-5.183-6.673-5.12 6.549c-.664.838-1.296 1.303-2.37 1.303C1.137 23.831 0 22.995 0 21.63c0-.683.253-1.242.727-1.832zm28.223-4.532l-7.143-9.529c-.348-.466-.6-1.024-.6-1.707 0-1.273 1.074-2.297 2.434-2.297 1.106 0 1.8.589 2.401 1.46l5.374 7.603 5.468-7.666c.6-.87 1.327-1.429 2.338-1.429 1.485 0 2.371 1.025 2.371 2.33 0 .65-.316 1.24-.633 1.675l-7.143 9.468v6.27c0 1.334-1.074 2.388-2.433 2.388-1.358 0-2.434-1.054-2.434-2.389v-6.177zm16.372-2.831v-.064C45.322 6.008 49.9.74 56.274.74c3.494 0 5.721 1.188 7.732 2.923.248.225.494.578.494 1.029 0 .674-.587 1.252-1.236 1.252-.34 0-.62-.161-.805-.29-1.67-1.541-3.557-2.57-6.217-2.57-4.795 0-8.383 4.049-8.383 9.222v.064c0 5.204 3.62 9.284 8.383 9.284 2.692 0 4.578-.963 6.434-2.73.186-.194.464-.354.774-.354.617 0 1.175.579 1.175 1.22 0 .386-.185.707-.403.9-2.134 2.025-4.484 3.31-8.041 3.31-6.25 0-10.858-5.109-10.858-11.566zM68.15 1.254c0-.675.526-1.254 1.175-1.254.68 0 1.207.579 1.207 1.253v21.269c0 .707-.495 1.253-1.175 1.253-.681 0-1.207-.546-1.207-1.253V1.253zM88.533 15.39v-.064c0-3.567-2.568-6.49-5.939-6.49-3.464 0-5.846 2.923-5.846 6.426v.064c0 3.565 2.537 6.457 5.908 6.457 3.464 0 5.877-2.892 5.877-6.393zm-14.23 0v-.064c0-4.69 3.527-8.676 8.353-8.676 4.794 0 8.32 3.921 8.32 8.612v.064c0 4.69-3.556 8.674-8.382 8.674-4.794 0-8.291-3.92-8.291-8.61zm33.902 7.132c0 .675-.495 1.253-1.176 1.253-.649 0-1.175-.546-1.175-1.253v-1.8c-1.083 1.8-2.723 3.246-5.475 3.246-3.867 0-6.125-2.698-6.125-6.65V8.095c0-.706.495-1.253 1.175-1.253.65 0 1.207.547 1.207 1.253v8.611c0 3.084 1.61 5.012 4.423 5.012 2.723 0 4.795-2.088 4.795-5.205V8.096c0-.706.495-1.253 1.175-1.253.65 0 1.176.547 1.176 1.253v14.426zm6.092-7.26v.063c0 3.92 2.629 6.426 5.63 6.426 2.969 0 5.784-2.603 5.784-6.426v-.064c0-3.824-2.815-6.393-5.784-6.393-3.093 0-5.63 2.377-5.63 6.393zM128 22.521c0 .707-.526 1.252-1.175 1.252-.681 0-1.207-.545-1.207-1.252v-2.249c-1.299 1.992-3.186 3.695-6.124 3.695-3.835 0-7.641-3.149-7.641-8.61v-.066c0-5.428 3.806-8.64 7.641-8.64 2.969 0 4.887 1.67 6.124 3.533V1.254c0-.707.494-1.254 1.177-1.254.679 0 1.205.547 1.205 1.254v21.268z" clip-rule="evenodd" opacity=".9"/>
</svg>
